<svg width="37" height="27" viewBox="0 0 37 27" fill="none" xmlns="http://www.w3.org/2000/svg">
<path opacity="0.8" d="M26.8764 0.000311666C29.6764 0.000311911 32.0284 0.952313 33.9324 2.85631C35.7991 4.79765 36.7324 7.57898 36.7324 11.2003C36.7324 14.075 35.9671 16.6883 34.4364 19.0403C32.8684 21.4296 30.6471 23.3336 27.7724 24.7523C24.8604 26.171 21.8364 26.8803 18.7004 26.8803L17.5804 25.3123C18.5138 25.3123 19.7084 25.1256 21.1644 24.7523C22.6204 24.4163 24.0578 23.8936 25.4764 23.1843C26.8951 22.475 28.0711 21.579 29.0044 20.4963C30.4231 18.8536 31.1324 17.5096 31.1324 16.4643C30.8338 16.875 30.1618 17.2296 29.1164 17.5283C28.0711 17.8643 26.9511 18.0323 25.7564 18.0323C22.7698 18.0323 20.4924 16.8003 18.9244 14.3363C18.3644 16.8376 17.2444 19.0216 15.5644 20.8883C13.8471 22.755 11.7564 24.211 9.29244 25.2563C6.7911 26.339 4.1031 26.8803 1.22844 26.8803L0.108436 25.3123C1.04177 25.3123 2.23644 25.1256 3.69244 24.7523C5.14844 24.4163 6.58577 23.8936 8.00444 23.1843C9.4231 22.475 10.5991 21.579 11.5324 20.4963C12.9511 18.8536 13.6604 17.5096 13.6604 16.4643C13.3618 16.875 12.6898 17.2296 11.6444 17.5283C10.5991 17.8643 9.47911 18.0323 8.28444 18.0323C6.64177 18.0323 5.20444 17.6403 3.97244 16.8563C2.74044 16.0723 1.76977 15.0083 1.06044 13.6643C0.351105 12.3576 -0.00356105 10.9016 -0.00356091 9.29631C-0.00356068 6.60831 0.855106 4.38698 2.57244 2.63231C4.25244 0.877643 6.52977 0.000309887 9.40444 0.000310139C11.3458 0.000310308 13.1004 0.485644 14.6684 1.45631C16.2364 2.42698 17.3938 3.77098 18.1404 5.48831C18.8498 3.77098 19.9511 2.42698 21.4444 1.45631C22.9378 0.485645 24.7484 0.00031148 26.8764 0.000311666Z" fill="white"/>
</svg>
