<svg width="37" height="27" viewBox="0 0 37 27" fill="none" xmlns="http://www.w3.org/2000/svg">
<path opacity="0.8" d="M9.85794 26.8825C7.05794 26.8825 4.70594 25.9305 2.80194 24.0265C0.93527 22.0852 0.00193712 19.3038 0.00193712 15.6825C0.00193712 12.8078 0.767271 10.1945 2.29794 7.8425C3.86594 5.45317 6.08727 3.54916 8.96194 2.1305C11.8739 0.71183 14.8979 0.0024972 18.0339 0.0024972L19.1539 1.5705C18.2206 1.5705 17.0259 1.75716 15.5699 2.1305C14.1139 2.4665 12.6766 2.98916 11.2579 3.6985C9.83927 4.40783 8.66327 5.30383 7.72994 6.3865C6.31127 8.02916 5.60194 9.37316 5.60194 10.4185C5.9006 10.0078 6.5726 9.65316 7.61794 9.3545C8.66327 9.0185 9.78327 8.8505 10.9779 8.8505C13.9646 8.8505 16.2419 10.0825 17.8099 12.5465C18.3699 10.0452 19.4899 7.86116 21.1699 5.9945C22.8873 4.12783 24.9779 2.67183 27.4419 1.6265C29.9433 0.543831 32.6313 0.0024972 35.5059 0.0024972L36.6259 1.5705C35.6926 1.5705 34.4979 1.75716 33.0419 2.1305C31.5859 2.4665 30.1486 2.98916 28.7299 3.6985C27.3113 4.40783 26.1353 5.30383 25.2019 6.3865C23.7833 8.02916 23.0739 9.37316 23.0739 10.4185C23.3726 10.0078 24.0446 9.65316 25.0899 9.3545C26.1353 9.0185 27.2553 8.8505 28.4499 8.8505C30.0926 8.8505 31.5299 9.2425 32.7619 10.0265C33.9939 10.8105 34.9646 11.8745 35.6739 13.2185C36.3833 14.5252 36.7379 15.9812 36.7379 17.5865C36.7379 20.2745 35.8793 22.4958 34.1619 24.2505C32.4819 26.0052 30.2046 26.8825 27.3299 26.8825C25.3886 26.8825 23.6339 26.3972 22.0659 25.4265C20.4979 24.4558 19.3406 23.1118 18.5939 21.3945C17.8846 23.1118 16.7833 24.4558 15.2899 25.4265C13.7966 26.3972 11.9859 26.8825 9.85794 26.8825Z" fill="white"/>
</svg>
